<svg width="187" height="193" viewBox="0 0 187 193" fill="none" xmlns="http://www.w3.org/2000/svg">
<path d="M159.725 28.4736C145.621 13.9857 130.554 23.3627 121.126 33.048L32.055 124.545C22.6262 134.229 12.7572 148.944 27.6016 164.19C42.4461 179.441 56.7713 169.302 66.1982 159.616L155.271 68.122C164.7 58.4357 173.828 42.9594 159.725 28.4736Z" fill="white"/>
<path d="M74.3858 24.3231L93.5147 44L112.986 23.9704C114.307 22.6074 115.65 21.3425 117 20.1496C114.961 9.56708 109.091 0 93.5056 0C77.891 0 72.028 9.60465 70 20.2101C71.4579 21.5074 72.9127 22.8078 74.3858 24.3231Z" fill="white"/>
<path d="M113.081 168.803L93.9995 149L75.2511 168.454C73.8274 169.933 72.4107 171.283 71 172.552C73.1499 183.225 79.2346 193 93.9915 193C108.787 193 114.864 183.172 117 172.466C115.688 171.294 114.375 170.145 113.081 168.803Z" fill="white"/>
<path d="M67 72H30.5319C17.1606 72 0 76.2639 0 96.5103C0 111.617 9.55294 117.821 19.9586 120C21.1906 118.56 67 72 67 72Z" fill="white"/>
<path d="M167.718 73C166.573 74.3577 121 121 121 121H156.69C169.965 121 187 117.805 187 96.5094C187 80.8943 177.837 75.0274 167.718 73Z" fill="white"/>
<path d="M78.5081 59.7112L85 52.9879L66.1631 33.4766C56.7392 23.7188 42.4249 13.5035 27.5897 28.8674C16.7113 40.1336 19.1275 51.0985 24.8976 60C26.655 59.8654 78.5081 59.7112 78.5081 59.7112Z" fill="white"/>
<path d="M108.506 133.276L102 140.013L121.179 159.869C130.598 169.622 145.648 179.062 159.735 164.476C170.246 153.591 167.834 142.158 162.023 133C160.152 133.14 108.506 133.276 108.506 133.276Z" fill="white"/>
</svg>
