<?xml version="1.0" standalone="no"?>
<!DOCTYPE svg PUBLIC "-//W3C//DTD SVG 20010904//EN"
 "http://www.w3.org/TR/2001/REC-SVG-20010904/DTD/svg10.dtd">
<svg version="1.0" xmlns="http://www.w3.org/2000/svg"
 width="700.000000pt" height="700.000000pt" viewBox="0 0 700.000000 700.000000"
 preserveAspectRatio="xMidYMid meet">
<metadata>
Created by potrace 1.14, written by Peter Selinger 2001-2017
</metadata>
<g transform="translate(0.000000,700.000000) scale(0.100000,-0.100000)"
fill="#000000" stroke="none">
<path d="M817 6980 c-316 -67 -567 -259 -711 -546 -33 -67 -72 -174 -81 -224
-3 -14 -9 -47 -14 -75 -13 -65 -13 -5190 -1 -5260 18 -97 21 -111 42 -175 98
-306 344 -551 653 -651 156 -50 35 -48 2800 -48 2636 0 2589 0 2740 33 139 30
317 131 441 249 104 98 217 271 250 382 2 6 10 29 18 51 46 128 45 39 43 2814
-1 1433 -5 2616 -9 2630 -4 14 -13 48 -19 75 -58 245 -249 500 -464 621 -11 6
-36 20 -55 31 -65 36 -194 81 -291 100 -19 4 -1208 8 -2644 9 -2505 3 -2614 2
-2698 -16z"/>
</g>
</svg>
